{
  "accessors": [
    {
      "bufferView": 1,
      "componentType": 5126,
      "count": 4046,
      "max": [
        6.827000141143799,
        -39.94580078125,
        29.389999389648438
      ],
      "min": [
        -34.13999938964844,
        -79.28500366210938,
        -2.7860000133514404
      ],
      "type": "VEC3"
    },
    {
      "bufferView": 1,
      "byteOffset": 48552,
      "componentType": 5126,
      "count": 4046,
      "max": [
        1.0,
        1.0,
        1.0
      ],
      "min": [
        -1.0,
        -1.0,
        -0.9997138381004333
      ],
      "type": "VEC3"
    },
    {
      "bufferView": 0,
      "componentType": 5125,
      "count": 18027,
      "type": "SCALAR"
    },
    {
      "bufferView": 1,
      "byteOffset": 97104,
      "componentType": 5126,
      "count": 611,
      "max": [
        -0.5230000019073486,
        -36.39590072631836,
        23.2450008392334
      ],
      "min": [
        -26.04400062561035,
        -40.15439987182617,
        3.4049999713897705
      ],
      "type": "VEC3"
    },
    {
      "bufferView": 1,
      "byteOffset": 104436,
      "componentType": 5126,
      "count": 611,
      "max": [
        1.0,
        0.8929038643836975,
        0.9976983666419983
      ],
      "min": [
        -1.0,
        -0.894940972328186,
        -0.9759929180145264
      ],
      "type": "VEC3"
    },
    {
      "bufferView": 0,
      "byteOffset": 72108,
      "componentType": 5125,
      "count": 2082,
      "type": "SCALAR"
    },
    {
      "bufferView": 1,
      "byteOffset": 111768,
      "componentType": 5126,
      "count": 15056,
      "max": [
        13.088000297546387,
        -0.0010000000474974513,
        30.155000686645508
      ],
      "min": [
        -33.60200119018555,
        -45.83300018310547,
        -6.045000076293945
      ],
      "type": "VEC3"
    },
    {
      "bufferView": 1,
      "byteOffset": 292440,
      "componentType": 5126,
      "count": 15056,
      "max": [
        1.0,
        1.0,
        1.0
      ],
      "min": [
        -0.9999999403953552,
        -1.0,
        -1.0
      ],
      "type": "VEC3"
    },
    {
      "bufferView": 0,
      "byteOffset": 80436,
      "componentType": 5125,
      "count": 64515,
      "type": "SCALAR"
    },
    {
      "bufferView": 1,
      "byteOffset": 473112,
      "componentType": 5126,
      "count": 1387,
      "max": [
        -2.50600004196167,
        -0.0,
        3.527400016784668
      ],
      "min": [
        -27.30299949645996,
        -54.24399948120117,
        -3.881999969482422
      ],
      "type": "VEC3"
    },
    {
      "bufferView": 1,
      "byteOffset": 489756,
      "componentType": 5126,
      "count": 1387,
      "max": [
        0.9999991059303284,
        1.0,
        1.0
      ],
      "min": [
        -1.0,
        -1.0,
        -1.0
      ],
      "type": "VEC3"
    },
    {
      "bufferView": 0,
      "byteOffset": 338496,
      "componentType": 5125,
      "count": 4911,
      "type": "SCALAR"
    },
    {
      "bufferView": 1,
      "byteOffset": 506400,
      "componentType": 5126,
      "count": 1042,
      "max": [
        -4.361000061035156,
        -56.38059997558594,
        -0.21539999544620514
      ],
      "min": [
        -22.952999114990234,
        -59.987998962402344,
        -2.7860000133514404
      ],
      "type": "VEC3"
    },
    {
      "bufferView": 1,
      "byteOffset": 518904,
      "componentType": 5126,
      "count": 1042,
      "max": [
        1.0,
        0.9963560700416565,
        0.4720958173274994
      ],
      "min": [
        -1.0,
        -1.0,
        -1.0
      ],
      "type": "VEC3"
    },
    {
      "bufferView": 0,
      "byteOffset": 358140,
      "componentType": 5125,
      "count": 5202,
      "type": "SCALAR"
    },
    {
      "bufferView": 1,
      "byteOffset": 531408,
      "componentType": 5126,
      "count": 848,
      "max": [
        -1.5759999752044678,
        -28.10070037841797,
        8.76200008392334
      ],
      "min": [
        -24.98900032043457,
        -38.10029983520508,
        -3.200500011444092
      ],
      "type": "VEC3"
    },
    {
      "bufferView": 1,
      "byteOffset": 541584,
      "componentType": 5126,
      "count": 848,
      "max": [
        0.9985142350196838,
        0.9945729374885559,
        0.9955861568450928
      ],
      "min": [
        -1.0,
        -0.9945855736732483,
        -0.878287672996521
      ],
      "type": "VEC3"
    },
    {
      "bufferView": 0,
      "byteOffset": 378948,
      "componentType": 5125,
      "count": 2892,
      "type": "SCALAR"
    },
    {
      "bufferView": 1,
      "byteOffset": 551760,
      "componentType": 5126,
      "count": 383,
      "max": [
        11.4350004196167,
        -47.50199890136719,
        4.557000160217285
      ],
      "min": [
        -38.0,
        -56.23400115966797,
        3.690000057220459
      ],
      "type": "VEC3"
    },
    {
      "bufferView": 1,
      "byteOffset": 556356,
      "componentType": 5126,
      "count": 383,
      "max": [
        0.7260971069335938,
        0.9999985098838806,
        1.0
      ],
      "min": [
        -0.7260971069335938,
        -1.0,
        -1.0
      ],
      "type": "VEC3"
    },
    {
      "bufferView": 0,
      "byteOffset": 390516,
      "componentType": 5125,
      "count": 1005,
      "type": "SCALAR"
    }
  ],
  "asset": {
    "extras": {
      "author": "Ron (B-bot) (https://sketchfab.com/Official_Undertale_Last_Breath)",
      "license": "CC-BY-4.0 (http://creativecommons.org/licenses/by/4.0/)",
      "source": "https://sketchfab.com/3d-models/lucky-chinese-cat-8335850815734fd4ac739009541ad2a5",
      "title": "Lucky Chinese cat"
    },
    "generator": "Sketchfab-12.65.0",
    "version": "2.0"
  },
  "bufferViews": [
    {
      "buffer": 0,
      "byteLength": 394536,
      "name": "floatBufferViews",
      "target": 34963
    },
    {
      "buffer": 0,
      "byteLength": 560952,
      "byteOffset": 394536,
      "byteStride": 12,
      "name": "floatBufferViews",
      "target": 34962
    }
  ],
  "buffers": [
    {
      "byteLength": 955488,
      "uri": "scene.bin"
    }
  ],
  "materials": [
    {
      "doubleSided": true,
      "name": "color_14541540",
      "pbrMetallicRoughness": {
        "baseColorFactor": [
          0.866667,
          0.886275,
          0.894118,
          1.0
        ],
        "metallicFactor": 0.0
      }
    },
    {
      "doubleSided": true,
      "name": "color_15277357",
      "pbrMetallicRoughness": {
        "baseColorFactor": [
          0.913725,
          0.113725,
          0.176471,
          1.0
        ],
        "metallicFactor": 0.0
      }
    },
    {
      "doubleSided": true,
      "name": "color_16448250",
      "pbrMetallicRoughness": {
        "baseColorFactor": [
          0.980392,
          0.980392,
          0.980392,
          1.0
        ],
        "metallicFactor": 0.0
      }
    },
    {
      "doubleSided": true,
      "name": "color_16768282",
      "pbrMetallicRoughness": {
        "baseColorFactor": [
          1.0,
          0.866667,
          0.101961,
          1.0
        ],
        "metallicFactor": 0.0
      }
    },
    {
      "doubleSided": true,
      "name": "color_2829873",
      "pbrMetallicRoughness": {
        "baseColorFactor": [
          0.168627,
          0.180392,
          0.192157,
          1.0
        ],
        "metallicFactor": 0.0
      }
    },
    {
      "doubleSided": true,
      "name": "color_4634441",
      "pbrMetallicRoughness": {
        "baseColorFactor": [
          0.27451,
          0.717647,
          0.286275,
          1.0
        ],
        "metallicFactor": 0.0
      }
    },
    {
      "doubleSided": true,
      "name": "color_6383466",
      "pbrMetallicRoughness": {
        "baseColorFactor": [
          0.380392,
          0.403922,
          0.415686,
          1.0
        ],
        "metallicFactor": 0.0
      }
    }
  ],
  "meshes": [
    {
      "name": "Object_0",
      "primitives": [
        {
          "attributes": {
            "NORMAL": 1,
            "POSITION": 0
          },
          "indices": 2,
          "material": 0,
          "mode": 4
        }
      ]
    },
    {
      "name": "Object_1",
      "primitives": [
        {
          "attributes": {
            "NORMAL": 4,
            "POSITION": 3
          },
          "indices": 5,
          "material": 1,
          "mode": 4
        }
      ]
    },
    {
      "name": "Object_2",
      "primitives": [
        {
          "attributes": {
            "NORMAL": 7,
            "POSITION": 6
          },
          "indices": 8,
          "material": 2,
          "mode": 4
        }
      ]
    },
    {
      "name": "Object_3",
      "primitives": [
        {
          "attributes": {
            "NORMAL": 10,
            "POSITION": 9
          },
          "indices": 11,
          "material": 3,
          "mode": 4
        }
      ]
    },
    {
      "name": "Object_4",
      "primitives": [
        {
          "attributes": {
            "NORMAL": 13,
            "POSITION": 12
          },
          "indices": 14,
          "material": 4,
          "mode": 4
        }
      ]
    },
    {
      "name": "Object_5",
      "primitives": [
        {
          "attributes": {
            "NORMAL": 16,
            "POSITION": 15
          },
          "indices": 17,
          "material": 5,
          "mode": 4
        }
      ]
    },
    {
      "name": "Object_6",
      "primitives": [
        {
          "attributes": {
            "NORMAL": 19,
            "POSITION": 18
          },
          "indices": 20,
          "material": 6,
          "mode": 4
        }
      ]
    }
  ],
  "nodes": [
    {
      "children": [
        1
      ],
      "matrix": [
        1.0,
        0.0,
        0.0,
        0.0,
        0.0,
        2.220446049250313e-16,
        -1.0,
        0.0,
        0.0,
        1.0,
        2.220446049250313e-16,
        0.0,
        0.0,
        0.0,
        0.0,
        1.0
      ],
      "name": "Sketchfab_model"
    },
    {
      "children": [
        2,
        3,
        4,
        5,
        6,
        7,
        8
      ],
      "name": "tinker.obj.cleaner.materialmerger.gles"
    },
    {
      "mesh": 0,
      "name": "Object_2"
    },
    {
      "mesh": 1,
      "name": "Object_3"
    },
    {
      "mesh": 2,
      "name": "Object_4"
    },
    {
      "mesh": 3,
      "name": "Object_5"
    },
    {
      "mesh": 4,
      "name": "Object_6"
    },
    {
      "mesh": 5,
      "name": "Object_7"
    },
    {
      "mesh": 6,
      "name": "Object_8"
    }
  ],
  "scene": 0,
  "scenes": [
    {
      "name": "Sketchfab_Scene",
      "nodes": [
        0
      ]
    }
  ]
}
